<?xml version="1.0" standalone="no"?>
<!DOCTYPE svg PUBLIC "-//W3C//DTD SVG 20010904//EN"
 "http://www.w3.org/TR/2001/REC-SVG-20010904/DTD/svg10.dtd">
<svg version="1.0" xmlns="http://www.w3.org/2000/svg"
 width="142.000000pt" height="165.000000pt" viewBox="0 0 142.000000 165.000000"
 preserveAspectRatio="xMidYMid meet">

<g transform="translate(0.000000,165.000000) scale(0.100000,-0.100000)"
fill="#000000" stroke="none">
<path d="M560 1615 c-14 -8 -41 -15 -60 -15 -19 0 -42 -4 -49 -9 -10 -6 -1 -8
26 -4 38 5 41 3 52 -23 l11 -29 -5 27 c-6 34 18 49 90 59 l50 6 -45 1 c-25 1
-56 -5 -70 -13z"/>
<path d="M734 1616 c-24 -11 -35 -11 -44 -3 -8 8 -8 5 1 -10 12 -20 15 -21 29
-8 9 8 22 15 28 15 6 0 14 5 17 10 8 12 7 12 -31 -4z"/>
<path d="M821 1626 c2 -2 18 -6 34 -10 22 -5 26 -4 15 4 -14 9 -59 15 -49 6z"/>
<path d="M902 1596 c7 -8 17 -12 22 -9 4 3 2 9 -5 14 -22 13 -31 11 -17 -5z"/>
<path d="M970 1584 c14 -10 30 -23 37 -31 6 -8 17 -12 23 -8 8 5 -4 16 -30 31
-48 27 -66 32 -30 8z"/>
<path d="M773 1583 c-7 -2 -13 -9 -13 -14 0 -5 9 -4 21 3 17 11 22 10 33 -4 7
-10 17 -18 21 -18 5 0 0 9 -10 20 -18 20 -29 23 -52 13z"/>
<path d="M415 1569 c-4 -6 -5 -12 -2 -15 2 -3 7 2 10 11 7 17 1 20 -8 4z"/>
<path d="M704 1469 c1 -59 4 -105 9 -102 4 2 7 18 7 34 l0 31 35 -22 c19 -12
35 -19 35 -17 0 3 -16 15 -35 27 -20 12 -35 27 -34 33 1 7 -1 19 -4 27 -3 8
-8 33 -10 55 -2 22 -3 -8 -3 -66z"/>
<path d="M364 1544 c-18 -14 -18 -14 6 -3 31 14 36 19 24 19 -6 0 -19 -7 -30
-16z"/>
<path d="M877 1553 c-4 -3 -7 -11 -7 -17 0 -6 5 -5 12 2 6 6 9 14 7 17 -3 3
-9 2 -12 -2z"/>
<path d="M1050 1554 c0 -7 71 -36 76 -31 2 2 -14 11 -36 20 -22 8 -40 13 -40
11z"/>
<path d="M770 1525 c13 -14 26 -25 28 -25 3 0 -5 11 -18 25 -13 14 -26 25 -28
25 -3 0 5 -11 18 -25z"/>
<path d="M300 1509 c-17 -13 -18 -17 -5 -10 33 17 51 31 40 31 -5 0 -21 -10
-35 -21z"/>
<path d="M902 1500 c0 -14 2 -19 5 -12 2 6 2 18 0 25 -3 6 -5 1 -5 -13z"/>
<path d="M1191 1475 c20 -22 35 -45 32 -52 -2 -6 4 -14 14 -17 10 -3 31 -25
46 -48 15 -23 27 -37 27 -32 0 14 -47 77 -65 87 -9 4 -13 12 -11 16 3 4 -14
25 -37 47 l-42 39 36 -40z"/>
<path d="M1046 1485 c-9 -26 -7 -32 5 -12 6 10 9 21 6 23 -2 3 -7 -2 -11 -11z"/>
<path d="M225 1458 c-33 -28 -102 -144 -92 -154 2 -2 17 24 33 57 16 35 46 76
68 95 22 19 37 34 33 34 -3 0 -23 -14 -42 -32z"/>
<path d="M500 1480 c0 -6 7 -10 15 -10 8 0 15 2 15 4 0 2 -7 6 -15 10 -8 3
-15 1 -15 -4z"/>
<path d="M620 1479 c0 -5 4 -8 9 -5 5 3 11 -1 15 -9 3 -8 10 -15 16 -15 5 0 2
9 -7 20 -19 22 -33 26 -33 9z"/>
<path d="M765 1480 c-8 -13 3 -30 18 -29 9 0 9 2 0 6 -7 2 -13 9 -13 14 0 4 7
5 17 2 11 -4 14 -3 9 5 -9 15 -23 15 -31 2z"/>
<path d="M910 1458 c0 -4 4 -8 9 -8 6 0 12 4 15 8 3 5 -1 9 -9 9 -8 0 -15 -4
-15 -9z"/>
<path d="M380 1450 c0 -5 5 -10 11 -10 5 0 7 5 4 10 -3 6 -8 10 -11 10 -2 0
-4 -4 -4 -10z"/>
<path d="M681 1428 c-1 -19 -10 -32 -28 -42 -16 -8 -23 -15 -17 -16 25 0 56
36 51 60 -4 24 -4 24 -6 -2z"/>
<path d="M1139 1391 c-15 -14 -30 -33 -35 -41 -4 -8 9 2 30 23 21 21 36 40 35
41 -2 2 -16 -8 -30 -23z"/>
<path d="M802 1379 c2 -7 10 -15 17 -17 8 -3 12 1 9 9 -2 7 -10 15 -17 17 -8
3 -12 -1 -9 -9z"/>
<path d="M192 1350 c0 -14 2 -19 5 -12 2 6 2 18 0 25 -3 6 -5 1 -5 -13z"/>
<path d="M567 1353 c-13 -12 -7 -23 11 -22 10 0 12 3 4 6 -6 2 -10 9 -6 14 6
10 0 12 -9 2z"/>
<path d="M602 1340 c14 -22 24 -19 15 5 -4 8 -11 15 -17 15 -6 0 -6 -7 2 -20z"/>
<path d="M1150 1340 c-6 -11 -8 -20 -6 -20 3 0 10 9 16 20 6 11 8 20 6 20 -3
0 -10 -9 -16 -20z"/>
<path d="M761 1314 c0 -11 3 -14 6 -6 3 7 2 16 -1 19 -3 4 -6 -2 -5 -13z"/>
<path d="M696 1285 c-17 -13 -18 -15 -3 -15 9 0 17 -7 17 -17 0 -26 15 -4 15
23 1 28 -3 29 -29 9z"/>
<path d="M113 1259 c-9 -22 -9 -36 -3 -44 6 -7 8 -21 4 -31 -5 -18 -5 -18 6
-1 9 14 9 21 0 32 -8 10 -9 19 0 35 6 12 10 26 8 31 -2 5 -9 -5 -15 -22z"/>
<path d="M1325 1192 c2 -62 7 -97 16 -105 11 -10 11 -9 1 4 -7 9 -10 23 -7 30
3 8 1 48 -4 89 l-9 75 3 -93z"/>
<path d="M337 1259 c7 -7 15 -10 18 -7 3 3 -2 9 -12 12 -14 6 -15 5 -6 -5z"/>
<path d="M191 1236 c-7 -8 -19 -12 -27 -9 -15 6 -18 -5 -6 -25 6 -9 14 -6 32
13 13 14 21 27 18 30 -3 3 -11 -1 -17 -9z"/>
<path d="M1056 1220 c8 -42 23 -84 29 -79 2 3 -5 29 -16 59 -13 37 -17 44 -13
20z"/>
<path d="M1160 1240 c0 -5 7 -7 15 -4 8 4 22 1 30 -6 7 -6 24 -10 37 -7 21 4
20 4 -4 6 -15 0 -30 6 -33 11 -8 13 -45 13 -45 0z"/>
<path d="M238 1211 c-24 -24 -23 -27 12 -40 18 -6 28 -6 25 -1 -4 6 -13 10
-21 10 -8 0 -14 5 -14 11 0 7 11 9 30 6 34 -7 40 7 11 23 -24 12 -22 13 -43
-9z"/>
<path d="M566 1222 c18 -15 113 -44 131 -39 14 4 14 5 -4 6 -12 0 -45 10 -73
21 -54 21 -70 25 -54 12z"/>
<path d="M820 1214 c-24 -14 -16 -14 21 1 13 5 16 1 13 -22 -4 -24 -3 -25 5
-8 6 12 10 15 10 6 1 -8 3 -12 6 -10 8 9 -7 49 -19 49 -6 -1 -22 -8 -36 -16z"/>
<path d="M322 1194 c-7 -14 -8 -23 -2 -19 15 9 32 45 22 45 -5 0 -14 -12 -20
-26z"/>
<path d="M1100 1217 c0 -5 10 -23 22 -40 21 -29 21 -31 5 -59 -9 -16 -17 -35
-17 -41 0 -7 9 5 20 26 11 20 20 43 20 49 -1 14 -50 78 -50 65z"/>
<path d="M745 1190 c-3 -5 -2 -10 4 -10 5 0 13 5 16 10 3 6 2 10 -4 10 -5 0
-13 -4 -16 -10z"/>
<path d="M1200 1185 c-17 -10 -20 -14 -9 -15 9 0 22 7 29 15 15 18 12 18 -20
0z"/>
<path d="M1031 1185 c1 -19 18 -51 18 -35 0 8 -4 22 -9 30 -5 8 -9 11 -9 5z"/>
<path d="M374 1156 c-3 -8 -4 -27 -2 -43 3 -23 5 -20 9 15 5 43 2 53 -7 28z"/>
<path d="M620 1155 c0 -6 7 -12 15 -12 8 0 15 6 15 12 0 6 -7 12 -15 12 -8 0
-15 -6 -15 -12z"/>
<path d="M700 1152 c0 -8 9 -25 20 -39 13 -17 20 -21 20 -10 0 19 -39 67 -40
49z"/>
<path d="M400 1113 c0 -22 -5 -44 -12 -51 -9 -9 -9 -12 0 -12 6 0 14 12 18 28
3 15 8 34 10 44 3 9 0 19 -6 23 -6 4 -10 -8 -10 -32z"/>
<path d="M291 1123 c-1 -22 36 -70 46 -60 7 8 -14 43 -24 39 -4 -2 -11 7 -15
20 l-6 23 -1 -22z"/>
<path d="M1051 1122 c-1 -19 18 -52 29 -52 6 0 10 12 9 28 l-1 27 -7 -25 -7
-25 -11 30 c-6 17 -12 24 -12 17z"/>
<path d="M616 1094 c-11 -29 -6 -49 15 -62 28 -18 33 -10 19 32 -13 42 -25 52
-34 30z"/>
<path d="M1260 1090 c0 -11 2 -20 4 -20 2 0 6 9 9 20 3 11 1 20 -4 20 -5 0 -9
-9 -9 -20z"/>
<path d="M206 1071 c-3 -5 -14 -8 -24 -6 -9 1 -11 0 -4 -2 6 -3 12 -9 12 -14
0 -6 4 -8 9 -4 5 3 12 -3 14 -12 3 -10 5 -3 6 15 1 32 -3 40 -13 23z"/>
<path d="M102 1058 c-13 -13 -15 -92 -3 -123 5 -12 7 8 7 50 -1 65 0 69 24 76
21 6 22 7 5 8 -12 1 -26 -4 -33 -11z"/>
<path d="M1351 1050 c-1 -14 -4 -36 -6 -50 l-6 -25 11 25 c6 13 9 36 7 50 l-4
25 -2 -25z"/>
<path d="M790 1033 c0 -12 -6 -24 -12 -26 -8 -4 -9 -6 -2 -6 20 -2 39 28 26
41 -9 9 -12 7 -12 -9z"/>
<path d="M729 1002 c5 -34 6 -35 9 -8 2 16 0 32 -5 37 -5 5 -7 -7 -4 -29z"/>
<path d="M702 1005 c0 -16 2 -22 5 -12 2 9 2 23 0 30 -3 6 -5 -1 -5 -18z"/>
<path d="M1311 1014 c0 -11 3 -14 6 -6 3 7 2 16 -1 19 -3 4 -6 -2 -5 -13z"/>
<path d="M1235 1010 c-3 -6 1 -7 9 -4 18 7 21 14 7 14 -6 0 -13 -4 -16 -10z"/>
<path d="M132 980 c0 -19 2 -27 5 -17 2 9 2 25 0 35 -3 9 -5 1 -5 -18z"/>
<path d="M557 980 c18 -19 43 -60 57 -90 14 -30 25 -49 25 -42 2 24 -47 107
-81 137 l-33 30 32 -35z"/>
<path d="M976 980 c-58 -18 -84 -59 -111 -177 -8 -35 -15 -72 -14 -81 0 -9 6
6 13 33 6 28 15 49 21 49 5 -1 24 -28 42 -60 41 -76 59 -86 149 -78 91 8 104
-3 104 -87 0 -35 -4 -59 -11 -59 -5 0 -8 -4 -5 -9 10 -16 -60 -106 -101 -128
-28 -16 -65 -25 -127 -29 l-88 -7 7 32 c4 18 7 60 7 93 0 46 -5 64 -21 82 -19
21 -20 24 -5 80 8 32 13 60 11 62 -2 2 -14 -33 -26 -77 -12 -45 -19 -84 -16
-87 3 -3 5 2 5 11 0 20 13 22 28 5 22 -28 15 -164 -14 -278 -8 -30 -13 -79
-13 -110 2 -53 2 -52 9 20 10 107 25 143 45 110 3 -5 16 -9 28 -9 20 1 21 2 2
6 -27 7 -45 23 -45 39 0 19 29 18 37 -2 4 -12 8 -12 13 -4 5 8 10 1 15 -19 6
-27 11 -31 41 -31 18 0 63 12 99 26 109 44 173 134 182 258 5 61 2 76 -17 109
-26 44 -37 50 -16 8 9 -16 12 -31 9 -35 -4 -3 -1 -6 5 -6 8 0 12 -19 12 -50 0
-43 -3 -50 -20 -50 -12 0 -20 7 -20 16 0 11 5 14 16 10 15 -6 15 -4 0 18 -9
14 -16 36 -16 50 0 14 -5 28 -10 31 -6 4 -8 11 -5 16 4 5 -30 7 -81 5 -111 -5
-139 4 -129 42 9 37 9 37 44 11 23 -17 49 -24 94 -27 l62 -4 83 72 c64 56 82
77 82 98 0 15 7 36 15 46 8 11 15 27 14 35 0 9 -5 4 -11 -11 -5 -16 -14 -28
-19 -28 -5 0 -9 -11 -9 -24 0 -30 -9 -56 -20 -56 -4 0 -35 -27 -69 -60 -58
-57 -64 -60 -111 -60 -71 0 -96 13 -167 88 l-63 67 17 38 c9 21 26 45 37 53
24 16 40 19 31 4 -10 -16 11 -11 26 6 7 9 22 14 36 11 12 -2 20 0 17 4 -6 11
-39 10 -78 -1z m-46 -170 c20 -20 30 -41 30 -60 0 -17 -2 -30 -4 -30 -5 0 -66
107 -66 115 0 11 12 4 40 -25z m279 -299 c12 -8 12 -14 1 -40 -7 -17 -15 -31
-19 -31 -17 1 -31 18 -25 34 5 13 9 14 20 5 9 -8 14 -8 14 -1 0 6 -4 14 -10
17 -12 7 -13 25 -2 25 4 0 13 -4 21 -9z m-35 -74 c16 -12 15 -15 -14 -52 -17
-22 -50 -50 -73 -62 -39 -20 -43 -21 -54 -6 -17 22 -16 30 4 37 9 4 21 1 26
-6 7 -10 8 -9 4 3 -7 22 32 46 45 27 8 -10 9 -9 5 3 -9 26 14 42 30 21 13 -15
13 -15 4 5 -21 42 -11 55 23 30z m-208 -120 c-1 -11 4 -22 10 -24 7 -2 10 6 7
22 -7 32 21 35 37 4 14 -26 11 -29 -38 -36 -34 -5 -42 -2 -51 16 -14 26 -7 40
17 38 11 0 18 -9 18 -20z"/>
<path d="M1238 973 c7 -3 16 -2 19 1 4 3 -2 6 -13 5 -11 0 -14 -3 -6 -6z"/>
<path d="M430 960 c8 -5 26 -10 39 -10 32 0 24 6 -19 14 -25 4 -31 3 -20 -4z"/>
<path d="M520 955 c0 -2 19 -32 43 -67 49 -72 76 -142 84 -221 6 -60 9 -58
-59 -69 -15 -3 -15 -5 -1 -23 11 -14 14 -15 10 -4 -4 12 1 18 18 22 33 6 37
-1 20 -34 -20 -38 -19 -96 4 -193 11 -44 25 -119 31 -166 12 -91 20 -114 20
-60 0 41 -16 129 -41 231 -23 93 -24 157 -3 188 21 30 14 141 -13 218 -24 64
-113 206 -113 178z"/>
<path d="M812 833 c-17 -54 -39 -131 -48 -170 -10 -40 -21 -73 -25 -73 -3 0
-9 16 -12 37 -7 38 -57 146 -65 138 -2 -2 5 -20 17 -40 29 -50 51 -142 51
-216 0 -35 4 -70 9 -77 4 -7 6 11 3 42 -5 58 23 180 80 354 16 51 28 95 25 98
-2 2 -18 -39 -35 -93z"/>
<path d="M1065 900 c-10 -11 -13 -20 -8 -20 13 0 38 29 31 35 -3 3 -13 -4 -23
-15z"/>
<path d="M110 891 c0 -11 4 -22 9 -25 4 -3 11 -19 14 -35 7 -32 108 -141 131
-141 7 0 19 -6 25 -14 10 -11 7 -17 -10 -30 -64 -44 -75 -114 -29 -178 16 -22
30 -46 30 -53 0 -27 72 -95 112 -105 22 -6 42 -9 45 -7 2 3 -10 8 -28 12 -50
11 -88 44 -116 100 -14 28 -34 60 -45 71 -14 16 -18 33 -16 60 3 39 6 41 43
29 l20 -7 -20 13 c-11 6 -22 14 -24 16 -6 5 41 53 52 53 5 0 22 -9 39 -21 16
-12 31 -19 34 -16 3 2 -10 14 -28 25 l-32 21 98 47 c110 53 113 66 14 70 -35
1 -78 5 -95 9 -32 7 -33 9 -33 57 0 44 -2 49 -15 38 -8 -7 -15 -18 -15 -24 0
-6 5 -4 10 4 7 11 10 4 10 -28 0 -26 5 -44 13 -46 6 -2 28 -9 47 -16 19 -8 60
-13 90 -11 66 2 61 -4 -48 -54 -63 -29 -85 -36 -94 -27 -9 9 -6 12 14 12 32 0
46 18 21 27 -10 3 -25 12 -33 19 -8 7 -34 14 -57 16 -57 6 -89 37 -98 94 -3
24 -10 42 -16 39 -5 -3 -6 1 -3 9 3 9 1 16 -5 16 -6 0 -11 -9 -11 -19z m155
-189 c-3 -3 -11 0 -18 7 -9 10 -8 11 6 5 10 -3 15 -9 12 -12z m50 8 c18 -8 17
-9 -7 -9 -16 -1 -28 4 -28 9 0 12 8 12 35 0z"/>
<path d="M181 859 c-6 -18 -9 -34 -7 -36 2 -2 9 10 15 28 6 18 9 34 7 36 -2 2
-9 -10 -15 -28z"/>
<path d="M657 872 c-6 -8 19 -92 30 -102 5 -5 3 5 -13 62 -6 20 -5 21 10 9 23
-19 20 2 -3 23 -10 10 -21 13 -24 8z"/>
<path d="M1176 833 l5 -32 -98 -4 -98 -3 103 -2 c110 -2 115 1 91 53 -7 15 -8
12 -3 -12z"/>
<path d="M550 793 l0 -36 20 23 c21 24 27 46 10 35 -5 -3 -10 -1 -10 4 0 6 -4
11 -10 11 -5 0 -10 -16 -10 -37z"/>
<path d="M641 825 c1 -19 18 -51 18 -35 0 8 -4 22 -9 30 -5 8 -9 11 -9 5z"/>
<path d="M771 794 c0 -11 3 -14 6 -6 3 7 2 16 -1 19 -3 4 -6 -2 -5 -13z"/>
<path d="M900 707 c0 -20 4 -37 10 -37 5 0 7 14 3 33 -8 45 -13 47 -13 4z"/>
<path d="M496 694 c2 -28 -1 -34 -12 -30 -9 3 -12 1 -9 -4 3 -6 13 -10 21 -10
16 0 21 65 5 74 -4 3 -7 -11 -5 -30z"/>
<path d="M601 720 c0 -8 4 -24 9 -35 l9 -20 0 20 c0 11 -4 27 -9 35 -9 13 -10
13 -9 0z"/>
<path d="M560 685 c0 -14 4 -25 9 -25 4 0 6 11 3 25 -2 14 -6 25 -8 25 -2 0
-4 -11 -4 -25z"/>
<path d="M420 676 c0 -2 8 -10 18 -17 15 -13 16 -12 3 4 -13 16 -21 21 -21 13z"/>
<path d="M360 666 c0 -3 15 -15 33 -27 l32 -23 -24 27 c-22 24 -41 35 -41 23z"/>
<path d="M290 610 c8 -5 20 -10 25 -10 6 0 3 5 -5 10 -8 5 -19 10 -25 10 -5 0
-3 -5 5 -10z"/>
<path d="M445 601 c-3 -5 -20 -13 -38 -16 -17 -4 -38 -12 -45 -18 -8 -6 -26
-12 -40 -13 -15 -1 -34 -2 -42 -3 -9 0 -16 -10 -16 -20 0 -17 2 -18 20 -5 11
8 30 14 42 14 12 0 27 6 33 14 7 8 27 17 45 20 33 6 81 35 59 36 -6 0 -14 -4
-18 -9z"/>
<path d="M891 564 c0 -11 3 -14 6 -6 3 7 2 16 -1 19 -3 4 -6 -2 -5 -13z"/>
<path d="M1091 558 c-1 -12 6 -18 20 -18 16 0 19 -4 14 -22 -5 -20 -4 -21 5
-5 13 19 6 37 -15 37 -7 0 -16 6 -18 13 -3 7 -6 5 -6 -5z"/>
<path d="M445 500 c3 -59 40 -169 52 -157 2 3 -5 23 -16 46 -12 22 -25 71 -31
108 l-9 68 4 -65z"/>
<path d="M900 530 c-6 -11 -8 -20 -6 -20 3 0 10 9 16 20 6 11 8 20 6 20 -3 0
-10 -9 -16 -20z"/>
<path d="M286 505 c-9 -24 -7 -32 4 -15 8 12 10 8 11 -15 l1 -30 8 35 c5 19 7
37 4 39 -2 2 -4 -2 -4 -10 0 -11 -2 -12 -9 -1 -7 11 -10 10 -15 -3z"/>
<path d="M330 490 c0 -16 2 -30 4 -30 2 0 6 14 8 30 3 17 1 30 -4 30 -4 0 -8
-13 -8 -30z"/>
<path d="M391 489 c0 -20 4 -51 10 -70 6 -19 13 -40 15 -48 3 -8 7 -12 10 -9
2 3 -1 18 -7 34 -6 16 -15 52 -19 79 -7 44 -8 46 -9 14z"/>
<path d="M490 496 c0 -8 -3 -22 -7 -32 -4 -12 -3 -15 5 -10 8 5 12 -2 12 -23
0 -30 9 -55 35 -101 22 -38 18 -5 -5 40 -12 24 -20 59 -20 90 0 27 -4 50 -10
50 -5 0 -10 -6 -10 -14z"/>
<path d="M1061 500 c0 -8 4 -22 9 -30 12 -18 12 -2 0 25 -6 13 -9 15 -9 5z"/>
<path d="M351 484 c0 -11 3 -14 6 -6 3 7 2 16 -1 19 -3 4 -6 -2 -5 -13z"/>
<path d="M781 474 c0 -11 3 -14 6 -6 3 7 2 16 -1 19 -3 4 -6 -2 -5 -13z"/>
<path d="M531 454 c0 -11 3 -14 6 -6 3 7 2 16 -1 19 -3 4 -6 -2 -5 -13z"/>
<path d="M362 430 c0 -19 2 -27 5 -17 2 9 2 25 0 35 -3 9 -5 1 -5 -18z"/>
<path d="M322 430 c0 -14 2 -19 5 -12 2 6 2 18 0 25 -3 6 -5 1 -5 -13z"/>
<path d="M651 445 c0 -5 6 -21 14 -35 8 -14 14 -20 14 -15 0 6 -6 21 -14 35
-8 14 -14 21 -14 15z"/>
<path d="M691 404 c0 -27 4 -67 9 -89 6 -29 7 -16 3 45 -6 95 -13 120 -12 44z"/>
<path d="M544 415 c3 -11 12 -38 21 -60 15 -38 16 -39 11 -7 -4 20 -2 31 4 27
6 -3 11 -18 11 -33 2 -23 2 -24 6 -5 6 28 -16 71 -27 53 -5 -8 -11 -3 -19 16
-6 16 -9 20 -7 9z"/>
<path d="M590 417 c0 -11 39 -97 44 -97 3 0 -4 21 -15 47 -20 46 -29 62 -29
50z"/>
<path d="M468 293 c12 -2 32 -2 45 0 12 2 2 4 -23 4 -25 0 -35 -2 -22 -4z"/>
<path d="M580 290 l-45 -7 40 -1 c22 -1 47 3 55 8 8 5 11 9 5 8 -5 0 -30 -4
-55 -8z"/>
</g>
</svg>
